<svg width="24" height="24" viewBox="0 0 24 24" fill="none" xmlns="http://www.w3.org/2000/svg">
<path fill-rule="evenodd" clip-rule="evenodd" d="M6.8525 23.7825L7.01 23.6475L18.7475 13.4475C19.145 13.1025 19.3925 12.585 19.3925 12.0075C19.3925 11.43 19.1375 10.9125 18.7475 10.5675L7.0325 0.375L6.8375 0.2025C6.65 0.075 6.425 0 6.185 0C5.5325 0 5 0.555 5 1.245V22.755C5 23.445 5.5325 24 6.185 24C6.4325 24 6.665 23.9175 6.8525 23.7825Z" fill="#6349C1"/>
<mask id="mask0_21_80" style="mask-type:luminance" maskUnits="userSpaceOnUse" x="5" y="0" width="15" height="24">
<path fill-rule="evenodd" clip-rule="evenodd" d="M6.8525 23.7825L7.01 23.6475L18.7475 13.4475C19.145 13.1025 19.3925 12.585 19.3925 12.0075C19.3925 11.43 19.1375 10.9125 18.7475 10.5675L7.0325 0.375L6.8375 0.2025C6.65 0.075 6.425 0 6.185 0C5.5325 0 5 0.555 5 1.245V22.755C5 23.445 5.5325 24 6.185 24C6.4325 24 6.665 23.9175 6.8525 23.7825Z" fill="white"/>
</mask>
<g mask="url(#mask0_21_80)">
<rect width="24" height="24" fill="#6349C1"/>
</g>
</svg>
