<svg width="24" height="24" viewBox="0 0 24 24" fill="none" xmlns="http://www.w3.org/2000/svg">
<path fill-rule="evenodd" clip-rule="evenodd" d="M23.9377 14.3603V9.57351H21.2696C21.0577 8.67599 20.7148 7.82834 20.266 7.04924L22.1236 5.19812L18.7387 1.81373L16.9247 3.62746C16.1392 3.14754 15.279 2.78604 14.3626 2.5492V0H9.57506V2.5492C8.6587 2.78604 7.79844 3.15377 7.01299 3.62746L5.19896 1.81373L1.81403 5.19812L3.67169 7.04924C3.22286 7.82834 2.88623 8.67599 2.66805 9.57351H0V14.3603H2.74909C2.98597 15.2141 3.3413 16.0182 3.79013 16.7661L1.81403 18.7419L5.19896 22.1263L7.21247 20.1131C7.94182 20.5369 8.73974 20.8548 9.57506 21.0729V23.94H14.3626V21.0729C15.2042 20.8548 15.9958 20.5369 16.7252 20.1131L18.7387 22.1263L22.1236 18.7419L20.1538 16.7661C20.6026 16.0244 20.9579 15.2204 21.1948 14.3603H23.9377ZM11.9689 15.3201C10.1175 15.3201 8.62138 13.818 8.62138 11.9668C8.62138 10.1157 10.1175 8.61361 11.9689 8.61361C13.8203 8.61361 15.3227 10.1157 15.3227 11.9668C15.3227 13.818 13.8203 15.3201 11.9689 15.3201Z" fill="#747C92"/>
<mask id="mask0_11_2029" style="mask-type:luminance" maskUnits="userSpaceOnUse" x="0" y="0" width="24" height="24">
<path fill-rule="evenodd" clip-rule="evenodd" d="M23.9377 14.3603V9.57351H21.2696C21.0577 8.67599 20.7148 7.82834 20.266 7.04924L22.1236 5.19812L18.7387 1.81373L16.9247 3.62746C16.1392 3.14754 15.279 2.78604 14.3626 2.5492V0H9.57506V2.5492C8.6587 2.78604 7.79844 3.15377 7.01299 3.62746L5.19896 1.81373L1.81403 5.19812L3.67169 7.04924C3.22286 7.82834 2.88623 8.67599 2.66805 9.57351H0V14.3603H2.74909C2.98597 15.2141 3.3413 16.0182 3.79013 16.7661L1.81403 18.7419L5.19896 22.1263L7.21247 20.1131C7.94182 20.5369 8.73974 20.8548 9.57506 21.0729V23.94H14.3626V21.0729C15.2042 20.8548 15.9958 20.5369 16.7252 20.1131L18.7387 22.1263L22.1236 18.7419L20.1538 16.7661C20.6026 16.0244 20.9579 15.2204 21.1948 14.3603H23.9377ZM11.9689 15.3201C10.1175 15.3201 8.62138 13.818 8.62138 11.9668C8.62138 10.1157 10.1175 8.61361 11.9689 8.61361C13.8203 8.61361 15.3227 10.1157 15.3227 11.9668C15.3227 13.818 13.8203 15.3201 11.9689 15.3201Z" fill="white"/>
</mask>
<g mask="url(#mask0_11_2029)">
<rect width="24" height="24" fill="#747C92"/>
</g>
</svg>
