<svg width="24" height="24" viewBox="0 0 24 24" fill="none" xmlns="http://www.w3.org/2000/svg">
<path fill-rule="evenodd" clip-rule="evenodd" d="M6.00004 5.14286C6.94826 5.14286 7.71433 4.37679 7.71433 3.42857V1.71429C7.71433 0.766071 6.94826 0 6.00004 0C5.05183 0 4.28576 0.766071 4.28576 1.71429V3.42857C4.28576 4.37679 5.05183 5.14286 6.00004 5.14286ZM18 5.14286C18.9483 5.14286 19.7143 4.37679 19.7143 3.42857V1.71429C19.7143 0.766071 18.9483 0 18 0C17.0518 0 16.2858 0.766071 16.2858 1.71429V3.42857C16.2858 4.37679 17.0518 5.14286 18 5.14286ZM20.5714 1.71425H23.5714C23.8071 1.71425 24 1.90711 24 2.14282V23.5714C24 23.8071 23.8071 24 23.5714 24H0.428571C0.192857 24 0 23.8071 0 23.5714V2.14282C0 1.90711 0.192857 1.71425 0.428571 1.71425H3.42857V3.89461C3.42857 5.09997 4.71429 5.99997 6 5.99997C7.28571 5.99997 8.57143 5.09997 8.57143 3.89461V1.71425H15.4286V3.89461C15.4286 5.09997 16.7571 5.99997 18.0429 5.99997C19.3286 5.99997 20.5714 5.09997 20.5714 3.89461V1.71425ZM21.4285 21.4285H2.57137V7.71425H21.4285V21.4285Z" fill="#747C92"/>
<mask id="mask0_11_2040" style="mask-type:luminance" maskUnits="userSpaceOnUse" x="0" y="0" width="24" height="24">
<path fill-rule="evenodd" clip-rule="evenodd" d="M6.00004 5.14286C6.94826 5.14286 7.71433 4.37679 7.71433 3.42857V1.71429C7.71433 0.766071 6.94826 0 6.00004 0C5.05183 0 4.28576 0.766071 4.28576 1.71429V3.42857C4.28576 4.37679 5.05183 5.14286 6.00004 5.14286ZM18 5.14286C18.9483 5.14286 19.7143 4.37679 19.7143 3.42857V1.71429C19.7143 0.766071 18.9483 0 18 0C17.0518 0 16.2858 0.766071 16.2858 1.71429V3.42857C16.2858 4.37679 17.0518 5.14286 18 5.14286ZM20.5714 1.71425H23.5714C23.8071 1.71425 24 1.90711 24 2.14282V23.5714C24 23.8071 23.8071 24 23.5714 24H0.428571C0.192857 24 0 23.8071 0 23.5714V2.14282C0 1.90711 0.192857 1.71425 0.428571 1.71425H3.42857V3.89461C3.42857 5.09997 4.71429 5.99997 6 5.99997C7.28571 5.99997 8.57143 5.09997 8.57143 3.89461V1.71425H15.4286V3.89461C15.4286 5.09997 16.7571 5.99997 18.0429 5.99997C19.3286 5.99997 20.5714 5.09997 20.5714 3.89461V1.71425ZM21.4285 21.4285H2.57137V7.71425H21.4285V21.4285Z" fill="white"/>
</mask>
<g mask="url(#mask0_11_2040)">
<rect width="24" height="24" fill="#747C92"/>
</g>
</svg>
