<svg width="25" height="24" viewBox="0 0 25 24" fill="none" xmlns="http://www.w3.org/2000/svg">
<path fill-rule="evenodd" clip-rule="evenodd" d="M18.8712 17.3942L24.0033 11.4129H20.5445C20.4215 9.9216 19.9832 8.5265 19.2882 7.28107C17.8234 4.65123 15.2359 2.73229 12.178 2.17105C12.1406 2.1657 12.0978 2.15501 12.0604 2.14967C12.0337 2.14432 12.0123 2.13898 11.9856 2.13898C11.4456 2.04811 10.8843 2 10.3176 2C10.3123 2 10.3016 2 10.2962 2C5.43675 2.01069 1.36846 5.39955 0.315298 9.94298V9.94833C0.29926 10.0071 0.288568 10.0659 0.277876 10.1247C0.27253 10.1514 0.267184 10.1728 0.261838 10.1996C0.256492 10.237 0.2458 10.2744 0.240454 10.3118C0.229762 10.3599 0.224416 10.4027 0.213724 10.4508C0.208378 10.4722 0.208378 10.4882 0.203032 10.5096C0.19234 10.5737 0.181648 10.6379 0.170956 10.702C0.170956 10.7073 0.170956 10.7073 0.170956 10.7127C0.117497 11.0494 0.0854206 11.3915 0.0693827 11.7336C0.0693827 11.7497 0.0693827 11.7657 0.0693827 11.7764C0.0640367 11.8512 0.0640367 11.9207 0.0586907 11.9955C0.0586907 12.0811 0.0533447 12.1719 0.0533447 12.2628C0.0533447 12.3537 0.0533447 12.4392 0.0586907 12.5301C0.0586907 12.6049 0.0640367 12.6744 0.0693827 12.7492C0.0693827 12.7653 0.0693827 12.7813 0.0693827 12.7973C0.0854206 13.1448 0.122842 13.4869 0.170956 13.8183C0.170956 13.8236 0.170956 13.8236 0.170956 13.829C0.181648 13.8931 0.19234 13.9572 0.203032 14.0214C0.208378 14.0428 0.208378 14.0588 0.213724 14.0802C0.224416 14.1283 0.229762 14.1764 0.240454 14.2192C0.2458 14.2566 0.256492 14.294 0.261838 14.3314C0.267184 14.3581 0.27253 14.3849 0.277876 14.4062C0.288568 14.465 0.304606 14.5238 0.315298 14.5773V14.5826C1.36846 19.1261 5.45279 22.5149 10.3176 22.5256C12.6111 22.5203 14.7601 21.7666 16.5671 20.3501L16.968 20.0347L14.6586 17.5653L14.3271 17.8111C13.1457 18.6824 11.7878 19.1047 10.3176 19.1047C6.54337 19.1047 3.47477 16.0579 3.47477 12.2628C3.47477 8.46771 6.54337 5.42094 10.3176 5.42094C13.8674 5.42094 16.8825 7.9118 17.2407 11.4076H13.3114L18.8712 17.3942Z" fill="#86C192"/>
<mask id="mask0_21_146" style="mask-type:luminance" maskUnits="userSpaceOnUse" x="0" y="2" width="25" height="21">
<path fill-rule="evenodd" clip-rule="evenodd" d="M18.8712 17.3942L24.0033 11.4129H20.5445C20.4215 9.9216 19.9832 8.5265 19.2882 7.28107C17.8234 4.65123 15.2359 2.73229 12.178 2.17105C12.1406 2.1657 12.0978 2.15501 12.0604 2.14967C12.0337 2.14432 12.0123 2.13898 11.9856 2.13898C11.4456 2.04811 10.8843 2 10.3176 2C10.3123 2 10.3016 2 10.2962 2C5.43675 2.01069 1.36846 5.39955 0.315298 9.94298V9.94833C0.29926 10.0071 0.288568 10.0659 0.277876 10.1247C0.27253 10.1514 0.267184 10.1728 0.261838 10.1996C0.256492 10.237 0.2458 10.2744 0.240454 10.3118C0.229762 10.3599 0.224416 10.4027 0.213724 10.4508C0.208378 10.4722 0.208378 10.4882 0.203032 10.5096C0.19234 10.5737 0.181648 10.6379 0.170956 10.702C0.170956 10.7073 0.170956 10.7073 0.170956 10.7127C0.117497 11.0494 0.0854206 11.3915 0.0693827 11.7336C0.0693827 11.7497 0.0693827 11.7657 0.0693827 11.7764C0.0640367 11.8512 0.0640367 11.9207 0.0586907 11.9955C0.0586907 12.0811 0.0533447 12.1719 0.0533447 12.2628C0.0533447 12.3537 0.0533447 12.4392 0.0586907 12.5301C0.0586907 12.6049 0.0640367 12.6744 0.0693827 12.7492C0.0693827 12.7653 0.0693827 12.7813 0.0693827 12.7973C0.0854206 13.1448 0.122842 13.4869 0.170956 13.8183C0.170956 13.8236 0.170956 13.8236 0.170956 13.829C0.181648 13.8931 0.19234 13.9572 0.203032 14.0214C0.208378 14.0428 0.208378 14.0588 0.213724 14.0802C0.224416 14.1283 0.229762 14.1764 0.240454 14.2192C0.2458 14.2566 0.256492 14.294 0.261838 14.3314C0.267184 14.3581 0.27253 14.3849 0.277876 14.4062C0.288568 14.465 0.304606 14.5238 0.315298 14.5773V14.5826C1.36846 19.1261 5.45279 22.5149 10.3176 22.5256C12.6111 22.5203 14.7601 21.7666 16.5671 20.3501L16.968 20.0347L14.6586 17.5653L14.3271 17.8111C13.1457 18.6824 11.7878 19.1047 10.3176 19.1047C6.54337 19.1047 3.47477 16.0579 3.47477 12.2628C3.47477 8.46771 6.54337 5.42094 10.3176 5.42094C13.8674 5.42094 16.8825 7.9118 17.2407 11.4076H13.3114L18.8712 17.3942Z" fill="white"/>
</mask>
<g mask="url(#mask0_21_146)">
<rect width="24" height="24" fill="#86C192"/>
</g>
</svg>
